<svg width="132" height="48" viewBox="0 0 132 48" fill="none" xmlns="http://www.w3.org/2000/svg">
<path d="M59.614 30.216C58.618 30.216 57.694 30.054 56.842 29.73C56.002 29.406 55.27 28.95 54.646 28.362C54.034 27.774 53.554 27.084 53.206 26.292C52.87 25.5 52.702 24.636 52.702 23.7C52.702 22.764 52.87 21.9 53.206 21.108C53.554 20.316 54.04 19.626 54.664 19.038C55.288 18.45 56.02 17.994 56.86 17.67C57.7 17.346 58.612 17.184 59.596 17.184C60.592 17.184 61.504 17.346 62.332 17.67C63.172 17.994 63.898 18.45 64.51 19.038C65.134 19.626 65.62 20.316 65.968 21.108C66.316 21.888 66.49 22.752 66.49 23.7C66.49 24.636 66.316 25.506 65.968 26.31C65.62 27.102 65.134 27.792 64.51 28.38C63.898 28.956 63.172 29.406 62.332 29.73C61.504 30.054 60.598 30.216 59.614 30.216ZM59.596 27.732C60.16 27.732 60.676 27.636 61.144 27.444C61.624 27.252 62.044 26.976 62.404 26.616C62.764 26.256 63.04 25.83 63.232 25.338C63.436 24.846 63.538 24.3 63.538 23.7C63.538 23.1 63.436 22.554 63.232 22.062C63.04 21.57 62.764 21.144 62.404 20.784C62.056 20.424 61.642 20.148 61.162 19.956C60.682 19.764 60.16 19.668 59.596 19.668C59.032 19.668 58.51 19.764 58.03 19.956C57.562 20.148 57.148 20.424 56.788 20.784C56.428 21.144 56.146 21.57 55.942 22.062C55.75 22.554 55.654 23.1 55.654 23.7C55.654 24.288 55.75 24.834 55.942 25.338C56.146 25.83 56.422 26.256 56.77 26.616C57.13 26.976 57.55 27.252 58.03 27.444C58.51 27.636 59.032 27.732 59.596 27.732Z" fill="white"/>
<path d="M74.3695 20.172C75.1375 20.172 75.8215 20.328 76.4215 20.64C77.0335 20.94 77.5135 21.408 77.8615 22.044C78.2095 22.668 78.3835 23.472 78.3835 24.456V30H75.5755V24.888C75.5755 24.108 75.4015 23.532 75.0535 23.16C74.7175 22.788 74.2375 22.602 73.6135 22.602C73.1695 22.602 72.7675 22.698 72.4075 22.89C72.0595 23.07 71.7835 23.352 71.5795 23.736C71.3875 24.12 71.2915 24.612 71.2915 25.212V30H68.4835V20.316H71.1655V22.998L70.6615 22.188C71.0095 21.54 71.5075 21.042 72.1555 20.694C72.8035 20.346 73.5415 20.172 74.3695 20.172Z" fill="white"/>
<path d="M88.8345 30V19.776H84.8025V17.4H95.7825V19.776H91.7505V30H88.8345Z" fill="white"/>
<path d="M97.1535 30V20.316H99.9614V30H97.1535ZM98.5574 18.966C98.0415 18.966 97.6214 18.816 97.2974 18.516C96.9734 18.216 96.8114 17.844 96.8114 17.4C96.8114 16.956 96.9734 16.584 97.2974 16.284C97.6214 15.984 98.0415 15.834 98.5574 15.834C99.0734 15.834 99.4934 15.978 99.8174 16.266C100.141 16.542 100.303 16.902 100.303 17.346C100.303 17.814 100.141 18.204 99.8174 18.516C99.5054 18.816 99.0854 18.966 98.5574 18.966Z" fill="white"/>
<path d="M114.97 20.172C115.738 20.172 116.416 20.328 117.004 20.64C117.604 20.94 118.072 21.408 118.408 22.044C118.756 22.668 118.93 23.472 118.93 24.456V30H116.122V24.888C116.122 24.108 115.96 23.532 115.636 23.16C115.312 22.788 114.856 22.602 114.268 22.602C113.86 22.602 113.494 22.698 113.17 22.89C112.846 23.07 112.594 23.346 112.414 23.718C112.234 24.09 112.144 24.564 112.144 25.14V30H109.336V24.888C109.336 24.108 109.174 23.532 108.85 23.16C108.538 22.788 108.088 22.602 107.5 22.602C107.092 22.602 106.726 22.698 106.402 22.89C106.078 23.07 105.826 23.346 105.646 23.718C105.466 24.09 105.376 24.564 105.376 25.14V30H102.568V20.316H105.25V22.962L104.746 22.188C105.082 21.528 105.556 21.03 106.168 20.694C106.792 20.346 107.5 20.172 108.292 20.172C109.18 20.172 109.954 20.4 110.614 20.856C111.286 21.3 111.73 21.984 111.946 22.908L110.956 22.638C111.28 21.882 111.796 21.282 112.504 20.838C113.224 20.394 114.046 20.172 114.97 20.172Z" fill="white"/>
<path d="M126.323 30.144C125.219 30.144 124.247 29.928 123.407 29.496C122.579 29.064 121.937 28.476 121.481 27.732C121.025 26.976 120.797 26.118 120.797 25.158C120.797 24.186 121.019 23.328 121.463 22.584C121.919 21.828 122.537 21.24 123.317 20.82C124.097 20.388 124.979 20.172 125.963 20.172C126.911 20.172 127.763 20.376 128.519 20.784C129.287 21.18 129.893 21.756 130.337 22.512C130.781 23.256 131.003 24.15 131.003 25.194C131.003 25.302 130.997 25.428 130.985 25.572C130.973 25.704 130.961 25.83 130.949 25.95H123.083V24.312H129.473L128.393 24.798C128.393 24.294 128.291 23.856 128.087 23.484C127.883 23.112 127.601 22.824 127.241 22.62C126.881 22.404 126.461 22.296 125.981 22.296C125.501 22.296 125.075 22.404 124.703 22.62C124.343 22.824 124.061 23.118 123.857 23.502C123.653 23.874 123.551 24.318 123.551 24.834V25.266C123.551 25.794 123.665 26.262 123.893 26.67C124.133 27.066 124.463 27.372 124.883 27.588C125.315 27.792 125.819 27.894 126.395 27.894C126.911 27.894 127.361 27.816 127.745 27.66C128.141 27.504 128.501 27.27 128.825 26.958L130.319 28.578C129.875 29.082 129.317 29.472 128.645 29.748C127.973 30.012 127.199 30.144 126.323 30.144Z" fill="white"/>
<path d="M12.0238 18.1334L8.3203 16.0245C7.68206 15.3906 7.27528 14.7132 7.1326 14.0417C6.98949 13.3682 7.10543 12.6731 7.56702 11.9852C8.70429 10.2905 11.4015 10.0286 13.5652 11.4452C14.6646 12.165 15.4173 12.9712 15.7528 13.7896C16.0796 14.5868 16.0253 15.4271 15.4457 16.2908C14.6672 17.4508 13.4116 18.2426 12.0238 18.1334Z" fill="#FFD057"/>
<path d="M9.18627 24.097L5.53133 22.5874C4.70295 21.9566 4.13616 21.2446 3.8851 20.5171C3.63467 19.7914 3.68827 19.0247 4.15293 18.2484C4.8768 17.0391 6.36093 16.4763 7.97017 16.674L11.6823 18.7877C12.2671 19.3531 12.5862 19.8645 12.6827 20.3719C12.7794 20.8803 12.6643 21.4482 12.2451 22.1485C11.5866 23.2486 10.4633 24.0452 9.18627 24.097Z" fill="#FFD057"/>
<path d="M10.1888 28.589C9.61697 29.6408 8.74491 30.5222 7.65323 30.7088L4.04546 29.651C3.05213 29.0429 2.2991 28.2904 1.90883 27.4948C1.51973 26.7015 1.48533 25.8592 1.94117 25.0208C2.55514 23.8916 3.82061 23.2756 5.26735 23.2754L8.93286 24.7893C9.73601 25.3704 10.2413 25.9507 10.4566 26.5481C10.6688 27.1367 10.6192 27.7975 10.1888 28.589Z" fill="#FFD057"/>
<path d="M1.1466 31.866C1.65587 30.9963 2.71406 30.5218 3.86243 30.3644L7.47535 31.4237C8.54243 32.07 9.22924 32.7243 9.53599 33.4014C9.83395 34.059 9.79889 34.7968 9.2763 35.6893C8.23493 37.4677 5.62742 38.0076 3.40283 36.7367C2.26565 36.0871 1.44128 35.2913 1.0342 34.454C0.63533 33.6336 0.625819 32.7554 1.1466 31.866Z" fill="#FFD057"/>
<path d="M16.4428 13.5136C16.2325 13.0005 15.8994 12.5127 15.4689 12.0565C17.2942 11.4514 19.6893 10.8605 21.4947 10.8605C30.9514 10.8605 38.6175 18.4326 38.6175 27.7733C38.6175 37.1141 30.9514 44.6862 21.4947 44.6862C16.2283 44.6862 10.8692 41.674 7.65656 37.8851C8.58993 37.5589 9.39155 36.9507 9.91007 36.0756C11.3873 37.8051 13.3778 39.2844 15.6635 40.306C17.4135 41.0882 19.3045 41.5634 21.1765 41.5634C26.9469 41.5634 31.9 38.101 34.0416 33.1598C34.77 31.4792 35.1732 29.6278 35.1732 27.6839C35.1732 22.2472 32.0208 17.5406 27.4302 15.2635C25.5477 14.3296 23.4235 13.8043 21.1765 13.8043C19.6943 13.8043 18.0686 14.1692 16.6939 14.6189C16.6765 14.2451 16.5911 13.8752 16.4428 13.5136Z" fill="white"/>
<path fill-rule="evenodd" clip-rule="evenodd" d="M15.6549 39.4911C13.4833 38.4658 11.617 37.012 10.2631 35.3418C10.5531 34.5546 10.5351 33.8065 10.2155 33.101C9.89943 32.4033 9.30446 31.785 8.51235 31.221C9.55699 30.7867 10.3376 29.8696 10.8447 28.9369C11.3528 28.0024 11.4547 27.1247 11.158 26.3015C10.9493 25.7225 10.5536 25.1998 10.021 24.7177C11.245 24.417 12.2605 23.5676 12.8859 22.5228C13.3652 21.7221 13.5544 20.9722 13.4144 20.2361C13.3211 19.7456 13.0869 19.2903 12.7421 18.8526C14.1357 18.6917 15.3182 17.8117 16.0662 16.697C16.35 16.2742 16.5344 15.8458 16.6268 15.4183C18.0181 14.9372 19.6936 14.5396 21.1765 14.5396C23.1679 14.5396 25.0559 14.9751 26.7498 15.755L26.0986 16.9377C26.0004 17.1161 26.0672 17.3393 26.2478 17.4363C26.4284 17.5333 26.6545 17.4674 26.7527 17.289L27.4157 16.0846C31.5894 18.2979 34.4287 22.6619 34.4287 27.6839C34.4287 29.3887 34.1016 31.017 33.5067 32.5109L32.5463 32.0421C32.362 31.9521 32.1388 32.0267 32.0477 32.2088C31.9566 32.3908 32.0322 32.6113 32.2165 32.7013L33.2143 33.1884C31.1138 37.6997 26.5127 40.8281 21.1765 40.8281C19.5563 40.8281 17.9019 40.4458 16.3354 39.7936L17.0757 38.428C17.1728 38.249 17.1045 38.0261 16.9233 37.9303C16.742 37.8344 16.5165 37.9018 16.4194 38.0808L15.6549 39.4911ZM25.1875 19.9055C25.3737 19.9915 25.4541 20.2104 25.367 20.3943L22.8273 25.7574C23.4255 26.1529 23.82 26.8266 23.82 27.592C23.82 27.8099 23.788 28.0204 23.7284 28.2192L26.9387 29.765C27.1235 29.854 27.2003 30.0741 27.1102 30.2566C27.0201 30.4391 26.7973 30.515 26.6125 30.426L23.4004 28.8794C22.995 29.4357 22.3336 29.798 21.5866 29.798C20.3531 29.798 19.3532 28.8103 19.3532 27.592C19.3532 26.3736 20.3531 25.3859 21.5866 25.3859C21.7802 25.3859 21.9684 25.4103 22.148 25.4563L24.6926 20.0828C24.7797 19.8988 25.0013 19.8195 25.1875 19.9055Z" fill="white"/>
<path fill-rule="evenodd" clip-rule="evenodd" d="M30.1422 0.0264413C30.333 -0.0490371 30.5497 0.0425931 30.6261 0.231103L31.3847 2.10258C31.4611 2.29108 31.3684 2.50509 31.1775 2.58057C30.9867 2.65605 30.77 2.56442 30.6936 2.37591L29.9349 0.504434C29.8585 0.315924 29.9513 0.10192 30.1422 0.0264413ZM34.0583 0.0484618C34.2461 0.131097 34.3305 0.348451 34.2469 0.533935L33.1856 2.88672C33.102 3.0722 32.8819 3.15558 32.6942 3.07294C32.5064 2.9903 32.422 2.77295 32.5056 2.58747L33.5668 0.234685C33.6505 0.0492014 33.8705 -0.0341737 34.0583 0.0484618ZM36.7731 2.53603C36.8651 2.71764 36.7905 2.9385 36.6067 3.02933L34.7813 3.93107C34.5974 4.0219 34.3738 3.9483 34.2819 3.76669C34.1899 3.58508 34.2644 3.36422 34.4483 3.27339L36.2737 2.37165C36.4575 2.28082 36.6811 2.35442 36.7731 2.53603Z" fill="#FFD057"/>
<path d="M20.0977 27.592C20.0977 26.7797 20.7643 26.1213 21.5866 26.1213C21.7991 26.1213 22.0002 26.165 22.182 26.2435C22.7087 26.4708 23.0756 26.9895 23.0756 27.592C23.0756 28.4042 22.4089 29.0626 21.5866 29.0626C20.7643 29.0626 20.0977 28.4042 20.0977 27.592Z" fill="#FFD057"/>
<path d="M31.0899 6.87418L31.0799 6.86859L31.0771 6.86702L31.0576 6.85601L31.0369 6.8474L31.036 6.84699L31.0325 6.84554L31.0184 6.83962L30.9636 6.81644C30.9161 6.79623 30.8479 6.76696 30.7657 6.73094C30.6009 6.65876 30.3813 6.56016 30.1598 6.45358C29.9366 6.34615 29.7191 6.23429 29.5552 6.13555C29.4953 6.09952 29.4474 6.06804 29.411 6.04172C29.4226 5.99431 29.4407 5.93382 29.4661 5.86136C29.5308 5.67607 29.6314 5.44412 29.7481 5.21359C29.8651 4.98246 29.9924 4.76438 30.1074 4.60348C30.162 4.52721 30.2084 4.47134 30.2447 4.43475C30.2657 4.43925 30.2913 4.44537 30.3217 4.45348C30.4352 4.48379 30.5878 4.53421 30.7702 4.60194C31.1334 4.7368 31.5889 4.93068 32.0358 5.14006C32.4834 5.3498 32.913 5.57073 33.2266 5.75853C33.3838 5.85265 33.5012 5.93213 33.5754 5.99269L33.5717 6.00872C33.5561 6.07532 33.532 6.15878 33.4998 6.25422C33.4353 6.44522 33.3431 6.67035 33.235 6.88394C33.1254 7.10037 33.0074 7.28918 32.8956 7.41804C32.7981 7.5304 32.7463 7.55058 32.7422 7.5537C32.6659 7.55103 32.5332 7.52251 32.3496 7.45942C32.1659 7.39633 31.9637 7.31027 31.7722 7.22124C31.5816 7.13267 31.4071 7.04372 31.2799 6.97673C31.2165 6.94331 31.1652 6.91556 31.13 6.89629L31.0899 6.87418Z" fill="white"/>
<path d="M31.982 13.4835C30.09 12.1264 27.918 11.127 25.5679 10.5858L25.6289 10.4455C25.7289 10.2166 25.8649 9.90794 26.0095 9.5881C26.1542 9.26777 26.3066 8.93856 26.4393 8.66783C26.5216 8.50001 26.5903 8.36767 26.6418 8.2754C26.662 8.27952 26.6849 8.28458 26.7106 8.29076C26.8949 8.33503 27.1578 8.42 27.4812 8.5392C28.1244 8.77621 28.9646 9.13255 29.806 9.51577C30.6661 9.90754 31.5194 10.3238 32.155 10.6635C32.474 10.834 32.7313 10.9815 32.9057 11.0949C32.9424 11.1187 32.9737 11.14 32.9999 11.1585L32.9982 11.1636C32.9688 11.2553 32.925 11.3737 32.8697 11.5124C32.7594 11.7889 32.6109 12.1276 32.4605 12.459C32.3105 12.7895 32.1603 13.1091 32.0474 13.3463L31.982 13.4835Z" fill="white"/>
<path d="M32.5093 10.0167C32.0424 9.76715 31.4657 9.47977 30.8571 9.19149C30.7244 9.12859 30.5901 9.06565 30.4551 9.00305L29.779 8.69515C29.7041 8.66164 29.6293 8.6284 29.5547 8.59551C29.4369 8.5435 29.3197 8.49233 29.2037 8.44228C28.673 8.21322 28.1682 8.00749 27.7415 7.85024C27.4095 7.72793 27.114 7.6309 26.8866 7.57625C26.7751 7.54947 26.6625 7.52849 26.5626 7.52457C26.5133 7.52264 26.4492 7.52397 26.3824 7.53987C26.319 7.55493 26.2093 7.59379 26.1279 7.70097C26.0321 7.8271 25.8999 8.08096 25.7693 8.34727C25.6316 8.62805 25.4757 8.96524 25.3297 9.28834C25.1834 9.61193 25.0461 9.92366 24.9453 10.1543C24.895 10.2696 24.8538 10.3647 24.8251 10.4312L25.5679 10.5858L25.6289 10.4455C25.7289 10.2166 25.8649 9.90794 26.0095 9.5881C26.1542 9.26777 26.3066 8.93856 26.4393 8.66783C26.5216 8.50001 26.5903 8.36767 26.6418 8.2754C26.662 8.27952 26.6849 8.28458 26.7106 8.29076C26.8949 8.33503 27.1578 8.42 27.4812 8.5392C28.1244 8.77621 28.9646 9.13255 29.806 9.51577C30.6661 9.90754 31.5194 10.3238 32.155 10.6635C32.474 10.834 32.7313 10.9815 32.9057 11.0949C32.9424 11.1187 32.9737 11.14 32.9999 11.1585L32.9982 11.1636C32.9688 11.2553 32.925 11.3737 32.8697 11.5124C32.7594 11.7889 32.6109 12.1276 32.4605 12.459C32.3105 12.7895 32.1603 13.1091 32.0474 13.3463L31.982 13.4835L32.5878 13.9377C32.6209 13.8691 32.6667 13.7736 32.7212 13.6591C32.8352 13.4195 32.9874 13.0956 33.1398 12.7598C33.2919 12.4248 33.4458 12.0741 33.5624 11.7819C33.6205 11.6362 33.6712 11.5003 33.7079 11.3859C33.7393 11.288 33.7773 11.1575 33.7773 11.0468C33.7773 10.9102 33.7068 10.8141 33.6822 10.782C33.648 10.7373 33.6082 10.6993 33.5741 10.6697C33.5045 10.6092 33.414 10.545 33.315 10.4806C33.114 10.35 32.8349 10.1907 32.5093 10.0167Z" fill="black"/>
<path fill-rule="evenodd" clip-rule="evenodd" d="M34.3356 5.89941C34.3356 5.74776 34.2549 5.63695 34.2166 5.58913C34.1686 5.52905 34.1094 5.47481 34.0524 5.42809C33.9368 5.33335 33.7828 5.23164 33.6126 5.1297C33.269 4.92397 32.8145 4.69105 32.3548 4.47567C31.8944 4.25993 31.4193 4.05741 31.0322 3.91364C30.8394 3.84206 30.662 3.78261 30.516 3.74362C30.4433 3.72423 30.3714 3.70796 30.3052 3.69856C30.2509 3.69085 30.155 3.68031 30.0577 3.70433C29.9101 3.74079 29.7968 3.83779 29.7274 3.90575C29.6478 3.98361 29.5708 4.07929 29.4994 4.17924C29.3556 4.38028 29.2095 4.63328 29.0822 4.88473C28.9546 5.13677 28.8401 5.39889 28.7623 5.62149C28.7237 5.73203 28.6913 5.84093 28.672 5.93832C28.6623 5.987 28.6546 6.03972 28.6525 6.09254C28.6505 6.14072 28.6521 6.21406 28.6782 6.29143C28.706 6.3738 28.7533 6.4353 28.7866 6.4731C28.8227 6.51425 28.8633 6.55066 28.9016 6.58177C28.9781 6.64394 29.0715 6.7055 29.1676 6.76338C29.3613 6.88008 29.6033 7.00376 29.8338 7.11464C29.9454 7.16835 30.0561 7.21992 30.1598 7.26725C30.2441 7.3057 30.3237 7.34136 30.3955 7.37309L31.0647 7.69571C31.1783 7.7538 31.3121 7.8201 31.4552 7.88659C31.6591 7.98139 31.8873 8.07916 32.105 8.15395C32.3131 8.22544 32.5485 8.28925 32.7536 8.28925C33.0693 8.28925 33.3111 8.06909 33.4608 7.8966C33.6282 7.70375 33.7778 7.45596 33.9008 7.2128C34.0254 6.96681 34.1309 6.70938 34.206 6.48675C34.2756 6.28066 34.3356 6.05729 34.3356 5.89941ZM31.0799 6.86859L31.0899 6.87418L31.13 6.89629C31.1652 6.91556 31.2165 6.94331 31.2799 6.97673C31.4071 7.04372 31.5816 7.13267 31.7722 7.22124C31.9637 7.31027 32.1659 7.39633 32.3496 7.45942C32.5332 7.52251 32.6659 7.55103 32.7422 7.5537C32.7463 7.55058 32.7981 7.5304 32.8956 7.41804C33.0074 7.28918 33.1254 7.10037 33.235 6.88394C33.3431 6.67035 33.4353 6.44522 33.4998 6.25422C33.532 6.15878 33.5561 6.07532 33.5717 6.00872L33.5754 5.99269C33.5012 5.93213 33.3838 5.85265 33.2266 5.75853C32.913 5.57073 32.4834 5.3498 32.0358 5.14006C31.5889 4.93068 31.1334 4.7368 30.7702 4.60194C30.5878 4.53421 30.4352 4.48379 30.3217 4.45348C30.2913 4.44537 30.2657 4.43925 30.2447 4.43475C30.2084 4.47134 30.162 4.52721 30.1074 4.60348C29.9924 4.76438 29.8651 4.98246 29.7481 5.21359C29.6314 5.44412 29.5308 5.67607 29.4661 5.86136C29.4407 5.93382 29.4226 5.99431 29.411 6.04172C29.4474 6.06804 29.4953 6.09952 29.5552 6.13555C29.7191 6.23429 29.9366 6.34615 30.1598 6.45358C30.3813 6.56016 30.6009 6.65876 30.7657 6.73094C30.8479 6.76696 30.9161 6.79623 30.9636 6.81644L31.0184 6.83962L31.0325 6.84554L31.036 6.84699L31.0369 6.8474L31.0576 6.85601L31.0771 6.86702L31.0799 6.86859Z" fill="black"/>
<path d="M30.4551 9.00305L31.0647 7.69571L30.3955 7.37309C30.3237 7.34136 30.2441 7.3057 30.1598 7.26725L29.5547 8.59551C29.6293 8.6284 29.7041 8.66164 29.779 8.69515L30.4551 9.00305Z" fill="white"/>
<path d="M30.1598 7.26725C30.0561 7.21992 29.9454 7.16835 29.8338 7.11464L29.2037 8.44228C29.3197 8.49233 29.4369 8.5435 29.5547 8.59551L30.1598 7.26725Z" fill="black"/>
<path d="M31.4552 7.88659C31.3121 7.8201 31.1783 7.7538 31.0647 7.69571L30.4551 9.00305C30.5901 9.06565 30.7244 9.12859 30.8571 9.19149L31.4552 7.88659Z" fill="black"/>
<path d="M24.2517 46.0351C23.674 45.8065 23.1831 45.5766 22.7911 45.3758C32.0537 44.7198 39.362 37.0896 39.362 27.7733C39.362 23.1916 37.5943 19.0177 34.6959 15.8806C34.7057 15.791 34.72 15.6674 34.739 15.5181C34.7803 15.1939 34.8439 14.7501 34.9331 14.2704C35.0224 13.7898 35.1364 13.2787 35.2775 12.8183C35.4206 12.3515 35.5835 11.9644 35.7595 11.7132C35.8286 11.6146 35.9087 11.4983 35.9992 11.3668L36 11.3657C36.4664 10.6879 37.2088 9.60891 38.1488 8.49195C39.2703 7.15935 40.6448 5.80803 42.1215 5.03752C43.4209 4.54896 44.7546 4.86992 45.7692 5.40739C46.2767 5.67627 46.6872 5.99092 46.9539 6.26135C47.0883 6.39765 47.1764 6.51283 47.2238 6.59612C47.2332 6.61258 47.2401 6.6262 47.245 6.63706C47.2371 6.65348 47.2274 6.67292 47.2157 6.69558C47.183 6.75908 47.1383 6.84052 47.0824 6.93945C46.9705 7.13717 46.8194 7.39396 46.6398 7.6971L46.498 7.9364C46.1632 8.50107 45.7559 9.18793 45.3455 9.91144C44.8753 10.7402 44.3975 11.6228 44.0159 12.4326C43.6389 13.2329 43.3395 13.9956 43.2499 14.5736C43.1624 15.1389 43.1759 16.0214 43.2362 16.9971C43.2972 17.9829 43.4084 19.0967 43.5278 20.1417C43.6473 21.1874 43.7755 22.1678 43.8709 22.887L43.9051 23.1446C43.9376 23.3884 43.9646 23.5915 43.9841 23.7446L43.9932 23.8166L43.9776 23.825L44.0198 24.0826L44.0264 24.1235L44.0457 24.2431C44.0623 24.347 44.0863 24.4974 44.1154 24.683C44.1736 25.0542 44.2522 25.5662 44.334 26.1288C44.4984 27.2591 44.6733 28.5779 44.7241 29.3776L44.7341 29.5336C44.8337 31.0872 44.9185 32.4104 44.2511 34.732C44.0918 35.2863 43.5234 36.3458 42.6383 37.6529C41.7623 38.9465 40.6012 40.4463 39.2904 41.8724C37.9785 43.2998 36.5251 44.6442 35.0659 45.6346C33.5997 46.6298 32.1662 47.2412 30.8862 47.2624C28.1739 47.3073 25.8743 46.6774 24.2517 46.0351Z" fill="#FFD057"/>
<path fill-rule="evenodd" clip-rule="evenodd" d="M34.0306 15.1979C33.5731 14.753 33.0915 14.3322 32.5878 13.9377L31.982 13.4835C30.09 12.1264 27.918 11.127 25.5679 10.5858L24.8251 10.4312C23.7461 10.2303 22.6328 10.1251 21.4947 10.1251C19.444 10.1251 16.7524 10.8293 14.8605 11.4853C14.5891 11.2576 14.2932 11.0396 13.9765 10.8322C11.6052 9.27973 8.39116 9.42617 6.94649 11.579C6.37836 12.4256 6.21868 13.3206 6.404 14.1927C6.5314 14.7922 6.81857 15.3673 7.22666 15.9018C5.70664 15.9349 4.28615 16.581 3.51209 17.8742C2.93762 18.8339 2.85934 19.8239 3.18045 20.7543C3.41116 21.4229 3.84254 22.0465 4.41765 22.6047C3.09927 22.8087 1.92517 23.496 1.2853 24.6729C0.705307 25.7396 0.756452 26.8319 1.23885 27.8154C1.60138 28.5545 2.2037 29.2276 2.95389 29.7987C1.96944 30.0655 1.03306 30.5912 0.502162 31.4979C-0.146926 32.6064 -0.137816 33.7421 0.363108 34.7724C0.85583 35.7858 1.81244 36.6776 3.0301 37.3733C4.2537 38.0723 5.62812 38.3015 6.86318 38.0894C10.1418 42.1122 15.769 45.3774 21.3809 45.4211L21.4248 45.4493L21.4715 45.4788C21.5928 45.5548 21.7705 45.662 22.0005 45.7898C22.4602 46.0452 23.1296 46.3831 23.9747 46.7177C25.6641 47.3864 28.0634 48.0446 30.8987 47.9976C32.3925 47.9729 33.9722 47.2692 35.4875 46.2407C37.0097 45.2075 38.5062 43.8196 39.8416 42.3667C41.1781 40.9125 42.3617 39.384 43.2571 38.0617C44.1434 36.7529 44.7729 35.6091 44.9673 34.9329C45.6695 32.4899 45.5783 31.067 45.477 29.4866L45.4671 29.3316C45.4142 28.4981 45.2348 27.1513 45.0709 26.0243C44.9886 25.4583 44.9096 24.9436 44.8511 24.5705C44.8219 24.3839 44.7978 24.2326 44.781 24.1279L44.7615 24.0072L44.7604 24.0006C44.7602 23.9918 44.7598 23.9843 44.7595 23.9791C44.7581 23.9557 44.7554 23.9276 44.7524 23.8988C44.7461 23.8394 44.7359 23.7556 44.7227 23.6526C44.7029 23.4976 44.6756 23.2921 44.6431 23.0479L44.6091 22.7915C44.5138 22.0733 44.3863 21.0982 44.2676 20.0593C44.1488 19.0197 44.0392 17.9199 43.9793 16.9522C43.9189 15.9744 43.9117 15.1636 43.9858 14.6848C44.0581 14.2187 44.3164 13.5378 44.6909 12.7429C45.061 11.9574 45.5284 11.0931 45.9949 10.2709C46.4016 9.55405 46.8051 8.87362 47.14 8.30867L47.2824 8.06837C47.4615 7.76596 47.6163 7.50316 47.7322 7.2982C47.84 7.10781 47.9357 6.93106 47.9725 6.82191C48.0139 6.69921 48.0019 6.58128 47.9798 6.49251C47.9572 6.40153 47.9177 6.31464 47.8728 6.2358C47.7831 6.0781 47.6485 5.9118 47.4871 5.74823C47.1623 5.41892 46.6891 5.06033 46.121 4.75937C44.9894 4.15988 43.4125 3.75533 41.8332 4.35919L41.8135 4.36674L41.7947 4.37646C40.1799 5.21306 38.723 6.65935 37.5763 8.02189C36.6107 9.16933 35.8448 10.2827 35.38 10.9583L35.3793 10.9593C35.2909 11.0879 35.2134 11.2006 35.1475 11.2946C34.9048 11.6409 34.7151 12.1155 34.565 12.6052C34.4129 13.1014 34.293 13.6416 34.2008 14.1376C34.1281 14.5291 34.0719 14.8965 34.0306 15.1979ZM15.4689 12.0565C15.8994 12.5127 16.2325 13.0005 16.4428 13.5136C16.5911 13.8752 16.6765 14.2451 16.6939 14.6189C18.0686 14.1692 19.6943 13.8043 21.1765 13.8043C23.4235 13.8043 25.5477 14.3296 27.4302 15.2635C32.0208 17.5406 35.1732 22.2472 35.1732 27.6839C35.1732 29.6278 34.77 31.4792 34.0416 33.1598C31.9 38.101 26.9469 41.5634 21.1765 41.5634C19.3045 41.5634 17.4135 41.0882 15.6635 40.306C13.3778 39.2844 11.3873 37.8051 9.91007 36.0756C9.39155 36.9507 8.58993 37.5589 7.65656 37.8851C10.8692 41.674 16.2283 44.6862 21.4947 44.6862C30.9514 44.6862 38.6175 37.1141 38.6175 27.7733C38.6175 18.4326 30.9514 10.8605 21.4947 10.8605C19.6893 10.8605 17.2942 11.4514 15.4689 12.0565ZM10.2631 35.3418C11.617 37.012 13.4833 38.4658 15.6549 39.4911L16.4194 38.0808C16.5165 37.9018 16.742 37.8344 16.9233 37.9303C17.1045 38.0261 17.1728 38.249 17.0757 38.428L16.3354 39.7936C17.9019 40.4458 19.5563 40.8281 21.1765 40.8281C26.5127 40.8281 31.1138 37.6997 33.2143 33.1884L32.2165 32.7013C32.0322 32.6113 31.9566 32.3908 32.0477 32.2088C32.1388 32.0267 32.362 31.9521 32.5463 32.0421L33.5067 32.5109C34.1016 31.017 34.4287 29.3887 34.4287 27.6839C34.4287 22.6619 31.5894 18.2979 27.4157 16.0846L26.7527 17.289C26.6545 17.4674 26.4284 17.5333 26.2478 17.4363C26.0672 17.3393 26.0004 17.1161 26.0986 16.9377L26.7498 15.755C25.0559 14.9751 23.1679 14.5396 21.1765 14.5396C19.6936 14.5396 18.0181 14.9372 16.6268 15.4183C16.5344 15.8458 16.35 16.2742 16.0662 16.697C15.3182 17.8117 14.1357 18.6917 12.7421 18.8526C13.0869 19.2903 13.3211 19.7456 13.4144 20.2361C13.5544 20.9722 13.3652 21.7221 12.8859 22.5228C12.2605 23.5676 11.245 24.417 10.021 24.7177C10.5536 25.1998 10.9493 25.7225 11.158 26.3015C11.4547 27.1247 11.3528 28.0024 10.8447 28.9369C10.3376 29.8696 9.55699 30.7867 8.51235 31.221C9.30446 31.785 9.89943 32.4033 10.2155 33.101C10.5351 33.8065 10.5531 34.5546 10.2631 35.3418ZM7.65323 30.7088C8.74491 30.5222 9.61697 29.6408 10.1888 28.589C10.6192 27.7975 10.6688 27.1367 10.4566 26.5481C10.2413 25.9507 9.73601 25.3704 8.93286 24.7893L5.26735 23.2754C3.82061 23.2756 2.55514 23.8916 1.94117 25.0208C1.48533 25.8592 1.51973 26.7015 1.90883 27.4948C2.2991 28.2904 3.05213 29.0429 4.04546 29.651L7.65323 30.7088ZM3.86243 30.3644C2.71406 30.5218 1.65587 30.9963 1.1466 31.866C0.625819 32.7554 0.63533 33.6336 1.0342 34.454C1.44128 35.2913 2.26565 36.0871 3.40283 36.7367C5.62742 38.0076 8.23493 37.4677 9.2763 35.6893C9.79889 34.7968 9.83395 34.059 9.53599 33.4014C9.22924 32.7243 8.54243 32.07 7.47535 31.4237L3.86243 30.3644ZM5.53133 22.5874L9.18627 24.097C10.4633 24.0452 11.5866 23.2486 12.2451 22.1485C12.6643 21.4482 12.7794 20.8803 12.6827 20.3719C12.5862 19.8645 12.2671 19.3531 11.6823 18.7877L7.97017 16.674C6.36093 16.4763 4.8768 17.0391 4.15293 18.2484C3.68827 19.0247 3.63467 19.7914 3.8851 20.5171C4.13616 21.2446 4.70295 21.9566 5.53133 22.5874ZM8.3203 16.0245L12.0238 18.1334C13.4116 18.2426 14.6672 17.4508 15.4457 16.2908C16.0253 15.4271 16.0796 14.5868 15.7528 13.7896C15.4173 12.9712 14.6646 12.165 13.5652 11.4452C11.4015 10.0286 8.70429 10.2905 7.56702 11.9852C7.10543 12.6731 6.98949 13.3682 7.1326 14.0417C7.27528 14.7132 7.68206 15.3906 8.3203 16.0245ZM22.7911 45.3758C23.1831 45.5766 23.674 45.8065 24.2517 46.0351C25.8743 46.6774 28.1739 47.3073 30.8862 47.2624C32.1662 47.2412 33.5997 46.6298 35.0659 45.6346C36.5251 44.6442 37.9785 43.2998 39.2904 41.8724C40.6012 40.4463 41.7623 38.9465 42.6383 37.6529C43.5234 36.3458 44.0918 35.2863 44.2511 34.732C44.9185 32.4104 44.8337 31.0872 44.7341 29.5336L44.7241 29.3776C44.6733 28.5779 44.4984 27.2591 44.334 26.1288C44.2522 25.5662 44.1736 25.0542 44.1154 24.683C44.0863 24.4974 44.0623 24.347 44.0457 24.2431L44.0264 24.1235L44.0198 24.0826L43.9776 23.825L43.9932 23.8166L43.9841 23.7446C43.9646 23.5915 43.9376 23.3884 43.9051 23.1446L43.8709 22.887C43.7755 22.1678 43.6473 21.1874 43.5278 20.1417C43.4084 19.0967 43.2972 17.9829 43.2362 16.9971C43.1759 16.0214 43.1624 15.1389 43.2499 14.5736C43.3395 13.9956 43.6389 13.2329 44.0159 12.4326C44.3975 11.6228 44.8753 10.7402 45.3455 9.91144C45.7559 9.18793 46.1632 8.50107 46.498 7.9364L46.6398 7.6971C46.8194 7.39396 46.9705 7.13717 47.0824 6.93945C47.1383 6.84052 47.183 6.75908 47.2157 6.69558C47.2274 6.67292 47.2371 6.65348 47.245 6.63706C47.2401 6.6262 47.2332 6.61258 47.2238 6.59612C47.1764 6.51283 47.0883 6.39765 46.9539 6.26135C46.6872 5.99092 46.2767 5.67627 45.7692 5.40739C44.7546 4.86992 43.4209 4.54896 42.1215 5.03752C40.6448 5.80803 39.2703 7.15935 38.1488 8.49195C37.2088 9.60891 36.4664 10.6879 36 11.3657L35.9992 11.3668C35.9087 11.4983 35.8286 11.6146 35.7595 11.7132C35.5835 11.9644 35.4206 12.3515 35.2775 12.8183C35.1364 13.2787 35.0224 13.7898 34.9331 14.2704C34.8439 14.7501 34.7803 15.1939 34.739 15.5181C34.72 15.6674 34.7057 15.791 34.6959 15.8806C37.5943 19.0177 39.362 23.1916 39.362 27.7733C39.362 37.0896 32.0537 44.7198 22.7911 45.3758Z" fill="black"/>
<path fill-rule="evenodd" clip-rule="evenodd" d="M25.367 20.3943C25.4541 20.2104 25.3737 19.9915 25.1875 19.9055C25.0013 19.8195 24.7797 19.8988 24.6926 20.0828L22.148 25.4563C21.9684 25.4103 21.7802 25.3859 21.5866 25.3859C20.3531 25.3859 19.3532 26.3736 19.3532 27.592C19.3532 28.8103 20.3531 29.798 21.5866 29.798C22.3336 29.798 22.995 29.4357 23.4004 28.8794L26.6125 30.426C26.7973 30.515 27.0201 30.4391 27.1102 30.2566C27.2003 30.0741 27.1235 29.854 26.9387 29.765L23.7284 28.2192C23.788 28.0204 23.82 27.8099 23.82 27.592C23.82 26.8266 23.4255 26.1529 22.8273 25.7574L25.367 20.3943ZM21.5866 26.1213C20.7643 26.1213 20.0977 26.7797 20.0977 27.592C20.0977 28.4042 20.7643 29.0626 21.5866 29.0626C22.4089 29.0626 23.0756 28.4042 23.0756 27.592C23.0756 26.9895 22.7087 26.4708 22.182 26.2435C22.0002 26.165 21.7991 26.1213 21.5866 26.1213Z" fill="black"/>
</svg>
